<?xml version="1.0" standalone="no"?>
<!DOCTYPE svg PUBLIC "-//W3C//DTD SVG 20010904//EN"
 "http://www.w3.org/TR/2001/REC-SVG-20010904/DTD/svg10.dtd">
<svg version="1.0" xmlns="http://www.w3.org/2000/svg"
 width="433.000000pt" height="700.000000pt" viewBox="0 0 433.000000 700.000000"
 preserveAspectRatio="xMidYMid meet">
<metadata>
Created by potrace 1.16, written by Peter Selinger 2001-2019
</metadata>
<g transform="translate(0.000000,700.000000) scale(0.100000,-0.100000)"
fill="#000000" stroke="none">
<path d="M1693 6960 c-139 -3 -256 -10 -260 -13 -3 -4 9 -7 28 -8 41 -1 31 -5
-36 -15 l-50 -8 65 -8 c36 -4 411 -10 835 -13 424 -3 785 -8 803 -11 30 -5 37
-12 63 -69 16 -36 29 -71 29 -80 0 -14 -107 -15 -1015 -15 -558 1 -1015 3
-1015 6 0 3 16 39 35 81 19 42 34 77 33 79 -2 1 -25 5 -53 8 -65 8 -136 -27
-183 -89 -24 -31 -42 -45 -67 -49 -64 -12 -65 -15 -65 -242 l0 -204 32 -20
c18 -11 45 -22 60 -25 15 -4 28 -13 28 -21 0 -8 5 -14 10 -14 6 0 10 7 10 16
0 14 2 14 16 -1 9 -9 22 -14 29 -11 8 3 11 -2 8 -15 -3 -10 -11 -19 -18 -19
-6 0 -19 -8 -28 -18 -15 -16 -15 -21 -3 -37 11 -16 37 -21 162 -31 82 -7 181
-13 219 -14 88 0 99 -7 85 -45 -6 -16 -8 -40 -5 -53 5 -20 3 -23 -13 -17 -14
4 -27 -3 -46 -25 -38 -46 -51 -103 -37 -175 9 -51 16 -64 53 -96 24 -21 55
-43 71 -50 20 -9 27 -18 27 -40 0 -20 8 -33 30 -46 40 -23 41 -60 3 -65 l-28
-3 -3 -118 -3 -117 26 -12 c20 -9 25 -18 23 -37 -3 -22 -7 -26 -33 -23 -16 2
-35 8 -42 14 -9 7 -137 7 -415 -1 -584 -16 -640 -19 -668 -29 -31 -12 -70 -46
-70 -60 0 -6 -6 -13 -12 -15 -7 -3 -1 -6 15 -6 34 -1 35 -19 1 -27 -14 -4 -51
-36 -83 -74 -32 -37 -67 -76 -79 -88 -55 -55 -55 -52 -48 -486 3 -221 6 -1237
6 -2259 l0 -1857 21 -18 c12 -9 31 -28 43 -40 12 -13 39 -35 62 -48 l41 -24
1856 0 c1054 0 1866 4 1879 9 13 5 39 24 59 42 20 19 44 39 52 44 15 9 17 144
28 1360 20 2386 24 3122 18 3159 -3 21 -15 48 -25 61 -105 130 -141 170 -165
184 -32 18 -37 31 -14 31 22 0 19 14 -10 48 -21 25 -37 32 -93 41 -63 10 -637
38 -930 45 -75 2 -138 8 -143 13 -8 8 -7 18 3 34 11 18 13 52 10 137 l-4 112
-34 0 c-47 0 -46 31 2 59 30 18 35 26 30 45 -5 21 1 27 49 51 99 48 134 118
108 218 -18 71 -38 103 -74 116 -22 8 -26 15 -26 54 -1 26 4 50 10 55 7 5 100
12 208 15 216 6 242 12 237 55 -3 24 -8 27 -39 28 -42 1 -59 10 -59 29 0 11 6
11 30 2 24 -9 35 -9 51 1 18 11 24 11 40 -4 11 -9 22 -14 27 -9 4 4 1 10 -5
12 -26 9 -12 24 16 18 24 -5 33 0 60 30 l31 36 -2 212 c-3 204 -4 212 -23 213
-11 0 -28 4 -38 8 -16 8 -16 9 -1 20 15 11 12 18 -27 63 -24 27 -56 59 -72 69
-15 10 -30 27 -33 37 -3 10 -17 25 -32 35 -24 16 -78 17 -662 18 -349 1 -749
-2 -887 -6z m-538 -466 c0 -176 -2 -199 -16 -202 -15 -3 -17 18 -21 190 -4
187 0 224 26 215 8 -3 11 -67 11 -203z m879 106 c-32 -13 -48 -92 -40 -198 3
-48 3 -92 -1 -98 -12 -19 -764 -14 -786 5 -14 11 -17 34 -17 140 0 69 4 131 8
137 4 7 16 13 27 15 43 8 829 7 809 -1z m-50 -556 c12 -5 16 -21 16 -65 0 -49
-3 -59 -17 -61 -87 -7 -116 -7 -165 3 l-58 12 0 58 0 59 104 0 c57 0 111 -3
120 -6z m-39 -242 c30 -6 41 -12 43 -28 2 -15 -4 -23 -20 -28 -37 -9 -204 -7
-232 4 -25 9 -35 38 -19 53 8 9 176 8 228 -1z m653 -292 c30 -13 28 -35 -8
-60 l-30 -21 0 -108 c0 -92 3 -110 19 -128 63 -67 -55 -104 -204 -63 -39 10
-58 19 -44 19 15 1 29 8 33 16 3 8 15 15 26 15 12 0 30 5 41 10 17 10 19 22
19 126 0 83 -3 116 -12 119 -7 2 -29 6 -49 9 -29 5 -35 10 -34 28 1 18 11 25
41 32 21 5 42 13 45 18 4 6 24 12 45 15 22 3 41 7 43 9 3 2 14 -3 25 -11 12
-8 31 -20 44 -25z m-579 6 c24 -22 28 -68 6 -86 -12 -10 -15 -37 -15 -126 0
-105 1 -113 21 -119 16 -5 19 -14 17 -38 l-3 -32 -127 1 c-135 0 -158 7 -158
49 0 12 7 28 15 35 20 17 21 226 1 253 -16 21 -10 56 13 75 26 22 203 12 230
-12z m691 -521 c117 -10 301 -15 558 -15 356 0 507 -8 537 -30 6 -4 26 -10 45
-14 19 -4 46 -16 59 -26 20 -17 23 -27 18 -61 -3 -23 -9 -45 -14 -48 -4 -4
-186 -2 -403 5 -217 7 -1016 15 -1775 19 l-1380 7 -12 52 c-14 58 -9 102 14
114 8 5 207 7 442 5 234 -2 584 1 776 6 438 12 907 6 1135 -14z m-1810 -262
c124 -4 207 -9 185 -10 -22 -2 -82 -5 -132 -9 -87 -5 -117 -16 -75 -27 13 -4
12 -5 -5 -6 -35 -2 -38 -21 -4 -21 30 0 41 -13 21 -25 -15 -9 -12 -25 6 -25
27 0 5 -18 -59 -49 -81 -40 -173 -129 -216 -210 -8 -14 -26 -42 -41 -61 -30
-40 -60 -101 -60 -123 0 -9 -4 -18 -9 -21 -4 -3 -11 -22 -14 -43 -3 -21 -17
-99 -31 -173 -24 -135 -32 -206 -61 -548 -16 -188 -27 -235 -54 -230 -17 3
-26 109 -30 343 -1 67 -7 122 -15 140 -10 22 -14 25 -14 10 1 -37 -14 -200
-18 -204 -2 -3 -3 283 -2 634 2 511 6 639 16 643 9 3 11 -3 6 -22 -9 -38 16
-33 44 8 15 23 33 36 50 38 34 4 221 0 512 -9z m2171 -504 c19 -10 20 -28 16
-844 l-3 -834 -22 -19 c-18 -16 -22 -30 -22 -80 0 -33 -4 -64 -10 -67 -6 -4
-10 11 -10 37 -1 114 -13 473 -16 477 -2 2 -4 -140 -4 -317 0 -203 -4 -323
-10 -327 -5 -3 -10 -10 -10 -16 0 -13 34 -11 48 3 9 9 12 7 12 -9 0 -32 -20
-42 -97 -45 -41 -2 -68 -7 -63 -12 5 -5 49 -7 99 -4 50 2 91 1 91 -4 0 -4 -48
-8 -107 -8 -1362 -2 -1738 1 -1752 15 -11 10 -11 15 -3 15 7 0 12 -4 12 -10 0
-6 44 -10 112 -10 61 0 109 3 105 6 -6 6 -104 16 -149 15 -24 0 -28 5 -34 37
-4 20 -8 89 -9 152 -2 223 -5 276 -15 260 -5 -8 -10 -106 -10 -222 0 -115 -4
-208 -8 -208 -4 0 -8 456 -7 1012 l0 1013 29 5 c59 10 1817 0 1837 -11z"/>
<path d="M2689 4136 c-2 -3 -294 -6 -649 -7 -355 -1 -657 -4 -672 -6 l-28 -5
0 -919 0 -919 78 0 c646 -4 1404 -11 1465 -14 72 -4 77 -2 82 18 3 11 6 434 8
939 l2 917 -141 0 c-77 0 -143 -2 -145 -4z m-911 -336 c32 -19 44 -50 20 -50
-7 0 -31 10 -54 22 -64 33 -126 5 -136 -63 -12 -80 102 -129 158 -68 22 24 44
24 44 1 0 -35 -37 -56 -104 -60 -62 -4 -64 -3 -104 35 -36 34 -42 46 -42 79 1
48 17 79 56 105 39 26 118 25 162 -1z m292 5 c36 -19 60 -62 60 -110 0 -71
-53 -115 -138 -115 -65 0 -110 30 -131 87 -14 39 -13 46 2 78 9 19 31 44 49
55 40 24 116 26 158 5z m328 -5 c33 -20 43 -50 17 -50 -8 0 -29 9 -47 20 -38
23 -57 25 -93 8 -28 -13 -55 -55 -55 -85 0 -10 11 -31 23 -47 20 -25 31 -29
70 -29 35 0 53 5 70 21 29 27 47 28 47 3 0 -33 -51 -61 -112 -61 -87 0 -137
46 -137 125 0 44 14 69 56 97 38 25 118 24 161 -2z m288 4 c41 -20 45 -26 54
-77 18 -95 -42 -153 -147 -145 -64 6 -100 35 -112 90 -25 108 94 185 205 132z
m-986 -889 c25 -26 -2 -40 -39 -20 -46 23 -85 4 -89 -45 -2 -30 2 -38 25 -52
27 -16 30 -16 61 3 32 21 52 19 52 -6 0 -17 -50 -45 -80 -45 -29 0 -77 27 -90
49 -25 48 -1 121 46 134 30 9 98 -2 114 -18z m100 -11 c4 -24 10 -30 38 -32
36 -4 66 14 58 34 -3 7 2 18 9 24 21 18 26 -3 23 -93 -3 -77 -20 -110 -26 -50
-4 40 -22 55 -64 51 -29 -3 -33 -7 -39 -41 -7 -42 -13 -52 -28 -42 -12 7 -15
167 -4 179 13 13 28 -1 33 -30z m308 24 c19 -25 73 -159 67 -168 -4 -6 -19 -1
-35 12 -40 29 -105 27 -130 -4 -14 -17 -21 -20 -30 -12 -9 9 -3 30 25 85 44
88 52 99 75 99 10 0 22 -6 28 -12z m181 -5 c12 -10 27 -29 34 -42 20 -41 35
-37 39 10 2 23 9 44 16 47 9 3 12 -19 12 -87 0 -73 -3 -91 -15 -91 -8 0 -22
12 -32 26 -36 51 -65 84 -74 84 -5 0 -9 -25 -9 -55 0 -42 -3 -55 -15 -55 -12
0 -15 16 -15 83 0 46 3 87 7 90 11 12 30 8 52 -10z m306 2 c0 -5 -20 -12 -45
-15 -59 -7 -63 -33 -5 -40 27 -3 40 -10 40 -20 0 -11 -9 -14 -31 -12 -19 2
-36 -3 -44 -13 -18 -22 -3 -33 50 -37 32 -2 45 -7 45 -18 0 -11 -14 -16 -52
-18 -84 -5 -93 5 -93 97 0 43 3 81 7 85 11 10 128 2 128 -9z"/>
<path d="M1931 3761 c-38 -36 -41 -78 -8 -117 20 -22 32 -27 70 -27 38 0 51 5
72 27 35 37 33 77 -6 115 -41 41 -85 42 -128 2z"/>
<path d="M2565 3778 c-52 -30 -62 -99 -19 -139 75 -70 210 28 146 107 -34 42
-86 55 -127 32z"/>
</g>
</svg>
